<svg width="161" height="52" viewBox="0 0 161 52" fill="none" xmlns="http://www.w3.org/2000/svg">
<g clip-path="url(#clip0_269:227)">
<path d="M19.0015 32.6587L12.235 34.3233L11.7311 33.3369L31.755 27.437V51.5799H18.9765L19.0015 32.6587Z" fill="#4397DE"/>
<path d="M79.8932 22.23C79.8932 24.6232 77.9916 26.5633 75.6457 26.5633C73.2999 26.5633 71.3983 24.6232 71.3983 22.23C71.3983 19.8368 73.2999 17.8967 75.6457 17.8967C77.9916 17.8967 79.8932 19.8368 79.8932 22.23ZM72.7016 22.23C72.7016 23.889 74.0198 25.2338 75.6457 25.2338C77.2717 25.2338 78.5898 23.889 78.5898 22.23C78.5898 20.5711 77.2717 19.2263 75.6457 19.2263C74.0198 19.2263 72.7016 20.5711 72.7016 22.23Z" fill="white"/>
<path d="M0.104387 34.4128L109.068 1.86256L107.297 0.518311L0 32.5708L0.104387 34.4128Z" fill="white"/>
<path d="M127.841 51.9734L161 41.9925L159.315 40.6978L127.736 50.1313L127.841 51.9734Z" fill="white"/>
<path d="M128.58 50.2829L76.0735 9.83829L75.3302 11.5226L127.836 51.9674L128.58 50.2829Z" fill="white"/>
<path d="M122.16 28.0018L92.7722 5.36511L92.0289 7.04946L120.042 28.5794L122.16 28.0018Z" fill="white"/>
<path d="M161 41.9916L107.3 0.562897L106.528 2.26756L158.269 42.2454L161 41.9916Z" fill="white"/>
<path d="M129.664 28.0635C131.061 28.0635 132.193 26.9087 132.193 25.4842C132.193 24.0596 131.061 22.9048 129.664 22.9048C128.268 22.9048 127.136 24.0596 127.136 25.4842C127.136 26.9087 128.268 28.0635 129.664 28.0635Z" fill="white"/>
<path d="M131.367 22.9276C131.128 22.6425 130.502 22.2017 130.179 22.0323C129.857 21.8629 129.507 21.7614 129.15 21.7335C128.793 21.7056 128.437 21.7521 128.1 21.8701C127.763 21.9881 127.453 22.1753 127.187 22.4211C126.921 22.667 126.705 22.9666 126.551 23.3028C126.397 23.6391 126.308 24.0054 126.289 24.381C126.27 24.7563 126.321 25.1337 126.44 25.4911C126.493 25.6498 126.621 25.8731 126.768 26.0972C126.771 26.1011 126.766 26.0931 126.768 26.0972C126.954 26.3782 126.873 26.7786 127.086 27.039C127.877 26.3079 129.323 24.9468 129.323 24.9468L131.367 22.9276Z" fill="#4397DE"/>
<path d="M126.571 27.5311L127.086 27.039C126.873 26.7785 126.954 26.3782 126.768 26.0972C126.932 26.7583 126.163 27.4232 126.571 27.5311Z" fill="#4397DE"/>
<path d="M129.99 32.168L126.481 31.6765C126.067 31.6185 125.685 31.9141 125.628 32.3368C125.571 32.7595 125.861 33.1492 126.275 33.2073L129.784 33.6988C130.199 33.7569 130.581 33.4612 130.638 33.0385C130.694 32.6158 130.405 32.2261 129.99 32.168Z" fill="white"/>
<path d="M131.233 27.7104C132.159 26.7657 133.66 26.7657 134.586 27.7104L139.703 32.9306C140.629 33.8753 140.629 35.4068 139.703 36.3513L138.026 38.0617L137.732 37.7619L130.844 30.7338C130.133 30.0087 130.133 28.8327 130.844 28.1076L131.233 27.7104Z" fill="white"/>
<path fill-rule="evenodd" clip-rule="evenodd" d="M132.792 30.127L130.466 28.992L128.566 33.6852C128.552 33.7199 128.53 33.7498 128.5 33.7721L126.62 35.198L124.83 36.4468C124.424 36.73 124.32 37.2954 124.598 37.7096C124.826 38.0493 125.24 38.1818 125.605 38.0621L125.612 38.0714L125.648 38.047C125.713 38.0219 125.776 37.9885 125.836 37.9467L129.274 35.5479C129.283 35.5419 129.291 35.5357 129.3 35.5294L129.354 35.492C129.354 35.492 130.902 34.3375 131.579 33.3254C132.319 32.2191 132.792 30.127 132.792 30.127Z" fill="white"/>
<path d="M125.008 28.8889L124.298 29.2956L126.972 34.158L127.682 33.7513L125.008 28.8889Z" fill="white"/>
<path d="M123.177 29.1183L124.695 28.3264C124.695 28.3264 125.645 27.8833 125.741 28.1594C125.837 28.4355 125.185 28.9402 125.185 28.9402L123.632 29.8699L123.177 29.1183Z" fill="white"/>
<path fill-rule="evenodd" clip-rule="evenodd" d="M136.352 40.8998C136.419 40.9326 136.488 40.9616 136.56 40.9863C136.653 41.0183 136.747 41.0421 136.84 41.0579L143.643 43.2617C144.365 43.4955 145.135 43.0882 145.365 42.3519C145.594 41.6157 145.195 40.8293 144.473 40.5955L139.135 38.8661L140.139 35.8325C140.452 34.8851 139.954 33.8579 139.025 33.538C138.097 33.2181 137.09 33.7268 136.776 34.6741L135.622 38.1607C135.312 38.3256 135.063 38.6108 134.949 38.9776C134.72 39.7139 135.119 40.5003 135.841 40.7341L136.352 40.8998Z" fill="white"/>
<path fill-rule="evenodd" clip-rule="evenodd" d="M135.736 38.5939L137.107 37.4646C137.871 36.8354 137.99 35.6936 137.373 34.9143L137.373 34.9143C136.757 34.135 135.637 34.0133 134.874 34.6425L131.644 37.3026C130.881 37.9318 130.761 39.0736 131.378 39.8529L131.378 39.8529C131.649 40.1955 132.017 40.411 132.41 40.4915L138.313 42.3098C139.037 42.5333 139.802 42.1148 140.021 41.3753C140.24 40.6357 139.83 39.8553 139.105 39.6318L135.736 38.5939Z" fill="white"/>
<path d="M40.2164 38.5316H39.0468V32.6027H36.0713V38.5316H34.9016V31.6366H40.2164V38.5316ZM47.0304 35.264C47.0304 35.9396 46.9159 36.5333 46.687 37.0446C46.458 37.5529 46.1299 37.9445 45.703 38.2192C45.279 38.4905 44.7902 38.6263 44.2362 38.6263C43.6884 38.6263 43.1996 38.4905 42.7694 38.2192C42.3424 37.9445 42.0113 37.5545 41.7761 37.0494C41.5439 36.5442 41.4264 35.9617 41.4233 35.302V34.9136C41.4233 34.2412 41.5394 33.6477 41.7714 33.1331C42.0066 32.6184 42.3361 32.2255 42.7601 31.954C43.187 31.6793 43.6761 31.5419 44.2269 31.5419C44.7776 31.5419 45.2651 31.6777 45.689 31.9492C46.116 32.2175 46.4457 32.6058 46.6777 33.1141C46.9099 33.6192 47.0274 34.2081 47.0304 34.8804V35.264ZM45.8561 34.9042C45.8561 34.1403 45.7139 33.5546 45.4291 33.1473C45.1476 32.74 44.7467 32.5365 44.2269 32.5365C43.7194 32.5365 43.3218 32.74 43.0339 33.1473C42.7494 33.5513 42.6039 34.1244 42.5977 34.8664V35.264C42.5977 36.0217 42.7415 36.6074 43.0293 37.0209C43.3201 37.4346 43.7224 37.6414 44.2362 37.6414C44.756 37.6414 45.1552 37.4394 45.4338 37.0351C45.7153 36.6311 45.8561 36.0407 45.8561 35.264V34.9042ZM50.2009 35.5766H49.4023V38.5316H48.2327V31.6366H49.4023V34.5348H50.0475L52.0344 31.6366H53.4733L51.1523 34.9374L53.6775 38.5316H52.2664L50.2009 35.5766ZM55.5017 35.9697V38.5316H54.3274V31.6366H56.9127C57.6677 31.6366 58.2666 31.8372 58.7092 32.2381C59.1548 32.6391 59.3775 33.1694 59.3775 33.8293C59.3775 34.5049 59.1594 35.0304 58.7231 35.4062C58.2899 35.7818 57.6817 35.9697 56.8987 35.9697H55.5017ZM55.5017 35.0084H56.9127C57.3306 35.0084 57.6493 34.9089 57.869 34.71C58.0886 34.508 58.1985 34.2174 58.1985 33.8388C58.1985 33.4661 58.087 33.1694 57.8643 32.9484C57.6415 32.7243 57.3352 32.6089 56.9453 32.6027H55.5017V35.0084ZM61.6474 38.5316H60.4776V31.6366H61.6474V38.5316ZM63.091 38.5316V31.6366H65.4071C66.1714 31.6366 66.7533 31.7928 67.1524 32.1054C67.5517 32.4181 67.7513 32.8836 67.7513 33.5024C67.7513 33.8181 67.6678 34.1023 67.5005 34.3549C67.3334 34.6074 67.0891 34.8033 66.7673 34.9421C67.1324 35.043 67.4139 35.2341 67.6119 35.5152C67.8132 35.7929 67.9137 36.1276 67.9137 36.519C67.9137 37.1662 67.7094 37.6635 67.3011 38.0107C66.8955 38.358 66.3138 38.5316 65.5557 38.5316H63.091ZM64.2653 35.4204V37.5749H65.5697C65.9378 37.5749 66.2256 37.4819 66.4329 37.2955C66.6403 37.1094 66.744 36.8504 66.744 36.519C66.744 35.8024 66.385 35.4361 65.6672 35.4204H64.2653ZM64.2653 34.5395H65.4164C65.7817 34.5395 66.0662 34.456 66.2705 34.2886C66.4778 34.1182 66.5816 33.8782 66.5816 33.5687C66.5816 33.2278 66.4855 32.9816 66.2938 32.8299C66.1049 32.6785 65.8094 32.6027 65.4071 32.6027H64.2653V34.5395ZM73.0382 35.4535H70.2624V37.5749H73.507V38.5316H69.088V31.6366H73.4745V32.6027H70.2624V34.5063H73.0382V35.4535ZM79.7779 31.6366V38.5316H78.6083V32.6027H76.5381L76.4174 35.2688C76.3709 36.1022 76.2703 36.7495 76.1156 37.2103C75.9641 37.6682 75.7428 38.0029 75.452 38.2144C75.1609 38.4259 74.7712 38.5316 74.2821 38.5316H73.9852V37.5749L74.1709 37.5609C74.4401 37.5355 74.6474 37.4394 74.7928 37.272C74.9413 37.1047 75.0527 36.8521 75.1269 36.5143C75.2044 36.1734 75.2584 35.673 75.2894 35.0131L75.4194 31.6366H79.7779ZM82.3495 34.2744H83.7328C84.2279 34.2744 84.6595 34.3612 85.0278 34.5348C85.396 34.7085 85.6761 34.9547 85.868 35.2735C86.0598 35.5923 86.1557 35.9617 86.1557 36.3816C86.1557 37.0256 85.9407 37.5434 85.5104 37.935C85.0835 38.3265 84.5001 38.5254 83.7607 38.5316H81.1752V31.6366H82.3495V34.2744ZM82.3495 35.2358V37.5749H83.7281C84.1241 37.5749 84.4322 37.4662 84.6518 37.2483C84.8745 37.0273 84.986 36.7353 84.986 36.3721C84.986 36.0248 84.8778 35.7502 84.6611 35.5482C84.4445 35.3462 84.1444 35.2419 83.7607 35.2358H82.3495ZM92.5382 38.5316H91.3683V35.4677H88.3465V38.5316H87.1722V31.6366H88.3465V34.5063H91.3683V31.6366H92.5382V38.5316ZM97.7972 36.9262H95.1793L94.6316 38.5316H93.4108L95.9637 31.6366H97.0175L99.5751 38.5316H98.3496L97.7972 36.9262ZM95.5088 35.9603H97.4677L96.4882 33.0998L95.5088 35.9603ZM37.5856 47.3802H36.4843V51.5316H35.2897V42.2894H36.4843V46.3646H37.4175L40.5845 42.2894H42.0716L38.6121 46.7709L42.3266 51.5316H40.8645L37.5856 47.3802ZM50.1912 47.2088C50.1912 48.1144 50.0419 48.9058 49.7431 49.5828C49.4444 50.2557 49.0215 50.7699 48.474 51.1253C47.9264 51.4808 47.2875 51.6585 46.5575 51.6585C45.8442 51.6585 45.2115 51.4808 44.6599 51.1253C44.1081 50.7656 43.6789 50.2557 43.3719 49.5956C43.0691 48.9312 42.9136 48.1631 42.9053 47.2913V46.6248C42.9053 45.7363 43.0566 44.9513 43.3596 44.2699C43.6624 43.5886 44.0895 43.0682 44.6411 42.7083C45.1969 42.3445 45.8316 42.1625 46.5452 42.1625C47.2709 42.1625 47.9098 42.3424 48.4614 42.7021C49.0172 43.0574 49.4444 43.576 49.7431 44.2571C50.0419 44.9344 50.1912 45.7235 50.1912 46.6248V47.2088ZM49.0027 46.6122C49.0027 45.5161 48.7871 44.6762 48.3556 44.0921C47.9242 43.504 47.3207 43.2099 46.5452 43.2099C45.7901 43.2099 45.1949 43.504 44.7594 44.0921C44.328 44.6762 44.1061 45.4886 44.0936 46.5297V47.2088C44.0936 48.271 44.3114 49.1068 44.7469 49.7161C45.1866 50.3213 45.7901 50.6238 46.5575 50.6238C47.3292 50.6238 47.9264 50.3382 48.3494 49.7669C48.7725 49.1914 48.9903 48.3684 49.0027 47.2977V46.6122ZM53.526 42.2894L56.4878 49.8304L59.4493 42.2894H60.9986V51.5316H59.804V47.9324L59.9159 44.0477L56.9418 51.5316H56.0272L53.0594 44.0667L53.1777 47.9324V51.5316H51.983V42.2894H53.526ZM70.0265 51.5316H68.8257V43.2925H64.3583V51.5316H63.1638V42.2894H70.0265V51.5316ZM77.2066 49.1196H73.4114L72.5588 51.5316H71.3269L74.7863 42.2894H75.8316L79.2972 51.5316H78.0715L77.2066 49.1196ZM73.7722 48.1165H76.852L75.309 43.7939L73.7722 48.1165ZM87.479 51.5316H86.2782V47.2597H81.7114V51.5316H80.5168V42.2894H81.7114V46.2631H86.2782V42.2894H87.479V51.5316ZM90.8825 51.5316H89.6877V42.2894H90.8825V51.5316ZM97.8136 51.5316V47.9324H95.723L93.8503 51.5316H92.5748L94.6777 47.5961C93.5081 47.1264 92.9231 46.2864 92.9231 45.0761C92.9231 44.1959 93.2053 43.5124 93.7694 43.0259C94.3377 42.5349 95.1257 42.2894 96.1336 42.2894H99.0144V51.5316H97.8136ZM94.1179 45.0761C94.1179 45.6347 94.2878 46.0831 94.628 46.4217C94.9722 46.7604 95.4494 46.9316 96.059 46.936H97.8136V43.2925H96.115C95.468 43.2925 94.9722 43.4489 94.628 43.7621C94.2878 44.0751 94.1179 44.5132 94.1179 45.0761Z" fill="white"/>
</g>
<defs>
<clipPath id="clip0_269:227">
<rect width="161" height="52" fill="white"/>
</clipPath>
</defs>
</svg>
